<svg width="64" height="65" viewBox="0 0 64 65" fill="none" xmlns="http://www.w3.org/2000/svg">
<g clip-path="url(#clip0_2050_94)">
<path d="M32 0.928223C49.6448 0.928223 64 15.2835 64 32.9282C64 50.573 49.6448 64.9282 32 64.9282C14.3552 64.9282 0 50.573 0 32.9282C0 15.2835 14.3552 0.928223 32 0.928223ZM32 61.7282C47.9061 61.7282 60.8 48.8343 60.8 32.9282C60.8 17.0221 47.9061 4.12822 32 4.12822C16.0939 4.12822 3.2 17.0221 3.2 32.9282C3.2 48.8343 16.0939 61.7282 32 61.7282Z" fill="#5DB3F1"/>
<path d="M30.2285 25.1013C29.9284 24.8013 29.5215 24.6328 29.0973 24.6328C28.673 24.6328 28.2661 24.8013 27.9661 25.1013L20.7661 32.3013C20.4661 32.6013 20.2976 33.0082 20.2976 33.4325C20.2976 33.8567 20.4661 34.2636 20.7661 34.5637L27.9661 41.7637C28.2678 42.0551 28.672 42.2164 29.0915 42.2127C29.511 42.2091 29.9123 42.0408 30.209 41.7442C30.5056 41.4475 30.6739 41.0462 30.6775 40.6267C30.6812 40.2072 30.5199 39.803 30.2285 39.5013L25.8973 35.0325H41.0973C41.5216 35.0325 41.9286 34.8639 42.2286 34.5638C42.5287 34.2638 42.6973 33.8568 42.6973 33.4325C42.6973 33.0081 42.5287 32.6012 42.2286 32.3011C41.9286 32.001 41.5216 31.8325 41.0973 31.8325H25.8973L30.2285 27.3637C30.5284 27.0636 30.6969 26.6567 30.6969 26.2325C30.6969 25.8082 30.5284 25.4013 30.2285 25.1013Z" fill="#5DB3F1"/>
</g>
<defs>
<clipPath id="clip0_2050_94">
<rect width="64" height="64" fill="white" transform="matrix(-1 0 0 1 64 0.928223)"/>
</clipPath>
</defs>
</svg>
