<svg width="27" height="21" viewBox="0 0 27 21" fill="none" xmlns="http://www.w3.org/2000/svg">
<path d="M23.599 0H2.9727C1.55464 0 0.394409 1.16024 0.394409 2.57831L0.39441 18.0481C0.39441 19.4662 1.55464 20.6264 2.9727 20.6264H23.599C25.017 20.6264 26.1773 19.4662 26.1773 18.0481L26.1773 2.57831C26.1773 1.16024 25.017 0 23.599 0ZM23.0833 5.4789L14.6523 10.7515C13.8144 11.2801 12.7573 11.2801 11.9193 10.7515L3.48835 5.4789C3.35909 5.40633 3.24589 5.30829 3.15561 5.19071C3.06533 5.07313 2.99985 4.93846 2.96312 4.79484C2.9264 4.65122 2.9192 4.50164 2.94196 4.35515C2.96472 4.20867 3.01696 4.06833 3.09553 3.94262C3.17409 3.81691 3.27735 3.70845 3.39905 3.6238C3.52075 3.53916 3.65835 3.48008 3.80354 3.45016C3.94873 3.42023 4.09848 3.42008 4.24373 3.44971C4.38898 3.47933 4.52671 3.53812 4.64858 3.62252L13.2858 9.02407L21.9231 3.62252C22.045 3.53812 22.1827 3.47933 22.328 3.44971C22.4732 3.42008 22.623 3.42023 22.7681 3.45016C22.9133 3.48008 23.0509 3.53916 23.1726 3.6238C23.2943 3.70845 23.3976 3.81691 23.4762 3.94262C23.5547 4.06833 23.607 4.20867 23.6297 4.35515C23.6525 4.50164 23.6453 4.65122 23.6086 4.79484C23.5718 4.93846 23.5064 5.07313 23.4161 5.19071C23.3258 5.30829 23.2126 5.40633 23.0833 5.4789Z" fill="#2C2826"/>
</svg>
