<svg width="21" height="21" viewBox="0 0 21 21" fill="none" xmlns="http://www.w3.org/2000/svg">
<path d="M14.3891 13.4138L13.8677 13.9329C13.8677 13.9329 12.6267 15.1659 9.24048 11.7992C5.85431 8.43253 7.09533 7.19952 7.09533 7.19952L7.42306 6.87179C8.23322 6.06736 8.31 4.77477 7.60297 3.83054L6.15912 1.90197C5.28364 0.733134 3.59342 0.578436 2.59075 1.57538L0.791661 3.36301C0.295481 3.85804 -0.0368341 4.49746 0.00327285 5.20793C0.106405 7.02649 0.929171 10.9375 5.51741 15.5005C10.3841 20.3386 14.9506 20.5311 16.8173 20.3569C17.4086 20.3019 17.9219 20.0017 18.3356 19.5891L19.9628 17.9711C21.0629 16.8791 20.7535 15.0055 19.3463 14.2412L17.1576 13.0506C16.234 12.5486 15.111 12.6965 14.3891 13.4138Z" fill="#2C2826"/>
</svg>
