<svg width="64" height="65" viewBox="0 0 64 65" fill="none" xmlns="http://www.w3.org/2000/svg">
<g clip-path="url(#clip0_2050_88)">
<path d="M32 0.928223C14.3552 0.928223 0 15.2835 0 32.9282C0 50.573 14.3552 64.9282 32 64.9282C49.6448 64.9282 64 50.573 64 32.9282C64 15.2835 49.6448 0.928223 32 0.928223ZM32 61.7282C16.0939 61.7282 3.2 48.8343 3.2 32.9282C3.2 17.0221 16.0939 4.12822 32 4.12822C47.9061 4.12822 60.8 17.0221 60.8 32.9282C60.8 48.8343 47.9061 61.7282 32 61.7282Z" fill="#5DB3F1"/>
<path d="M33.7715 25.1013C34.0716 24.8013 34.4785 24.6328 34.9027 24.6328C35.327 24.6328 35.7339 24.8013 36.0339 25.1013L43.2339 32.3013C43.5339 32.6013 43.7024 33.0082 43.7024 33.4325C43.7024 33.8567 43.5339 34.2636 43.2339 34.5637L36.0339 41.7637C35.7322 42.0551 35.328 42.2164 34.9085 42.2127C34.489 42.2091 34.0877 42.0408 33.791 41.7442C33.4944 41.4475 33.3261 41.0462 33.3225 40.6267C33.3188 40.2072 33.4801 39.803 33.7715 39.5013L38.1027 35.0325H22.9027C22.4784 35.0325 22.0714 34.8639 21.7714 34.5638C21.4713 34.2638 21.3027 33.8568 21.3027 33.4325C21.3027 33.0081 21.4713 32.6012 21.7714 32.3011C22.0714 32.001 22.4784 31.8325 22.9027 31.8325H38.1027L33.7715 27.3637C33.4716 27.0636 33.3031 26.6567 33.3031 26.2325C33.3031 25.8082 33.4716 25.4013 33.7715 25.1013Z" fill="#5DB3F1"/>
</g>
<defs>
<clipPath id="clip0_2050_88">
<rect width="64" height="64" fill="white" transform="translate(0 0.928223)"/>
</clipPath>
</defs>
</svg>
