<svg width="42" height="41" viewBox="0 0 42 41" fill="none" xmlns="http://www.w3.org/2000/svg">
  <g clip-path="url(#clip0_573_872)">
    <path d="M39.9701 19.9654C38.7645 17.3066 38.693 12.7541 37.7517 9.99065C36.5241 6.37948 33.7496 3.31879 30.2706 1.74441C29.2247 1.27099 27.7108 0.869142 26.208 0.549861C22.7675 -0.176777 19.2169 -0.176777 15.7709 0.549861C14.268 0.869142 12.7542 1.26549 11.7083 1.74441C8.22924 3.31879 5.4548 6.37948 4.22723 9.99065C3.2859 12.7541 3.21434 17.3066 2.00878 19.9654C1.13902 21.8756 -0.330774 23.7637 0.0710784 25.8226C0.324301 27.1217 1.31517 28.1841 2.46568 28.8337C3.61619 29.4888 4.85478 29.4062 6.14291 29.709C8.24025 30.1989 6.61082 31.7843 8.70816 32.2742C10.0403 32.5825 9.93023 32.1641 10.6018 33.3532C10.8991 33.8816 10.9872 37.9332 11.2404 38.4892C11.9615 40.0966 18.9251 40.8783 21.0005 40.1406C23.0703 40.8838 30.0339 40.1021 30.7605 38.4892C31.0082 37.9332 31.1018 33.8871 31.3991 33.3532C32.0652 32.1586 31.9606 32.5825 33.2927 32.2742C35.3901 31.7843 33.7607 30.1989 35.858 29.709C37.1461 29.4062 38.3847 29.4888 39.5352 28.8337C40.6857 28.1786 41.6766 27.1217 41.9298 25.8226C42.3262 23.7637 40.8564 21.8756 39.9921 19.9654H39.9701Z" fill="#6BB5C9"/>
    <path d="M7.54239 19.9215C6.99191 17.8242 8.06535 15.4186 9.99204 14.4277C11.9187 13.4368 14.5005 13.9543 15.8877 15.6167C16.741 16.6351 17.1373 17.9728 17.2309 19.294C17.2859 20.0371 17.2419 20.8353 16.8235 21.4574C16.1354 22.4868 14.7262 22.6739 13.4931 22.7675C11.8141 22.8941 9.93149 22.9547 8.67088 21.8372C8.10939 21.3418 7.73506 20.6482 7.54789 19.9215H7.54239Z" fill="#113D5E"/>
    <path d="M35.4849 19.9215C36.0354 17.8242 34.9619 15.4186 33.0352 14.4277C31.1085 13.4368 28.5268 13.9543 27.1396 15.6167C26.2863 16.6351 25.89 17.9728 25.7964 19.294C25.7413 20.0371 25.7854 20.8353 26.2037 21.4574C26.8918 22.4868 28.3011 22.6739 29.5342 22.7675C31.2131 22.8941 33.0958 22.9547 34.3564 21.8372C34.9179 21.3418 35.2922 20.6482 35.4794 19.9215H35.4849Z" fill="#113D5E"/>
    <path d="M24.694 28.443C24.5895 28.0742 24.3362 27.7714 24.083 27.4796C23.5876 26.9016 23.0866 26.3236 22.5912 25.7456C22.3985 25.5254 22.2059 25.2997 21.9581 25.1401C21.793 25.0355 21.3967 24.997 21.0664 25.0025C20.7361 24.997 20.3397 25.0355 20.1746 25.1401C19.9269 25.2997 19.7342 25.5254 19.5415 25.7456C19.0461 26.3236 18.5452 26.9016 18.0497 27.4796C17.802 27.7714 17.5433 28.0742 17.4387 28.443C17.279 29.01 17.5653 29.6706 18.0883 29.9458C18.6112 30.221 19.3158 30.0889 19.6957 29.6375C19.9654 29.3238 20.0645 28.9054 20.2847 28.5531C20.4168 28.3384 20.637 28.1512 20.8682 28.0742C20.8737 28.0742 20.8847 28.0742 20.8902 28.0687C20.9287 28.0576 20.9673 28.0521 21.0058 28.0466C21.0223 28.0466 21.0443 28.0466 21.0609 28.0466C21.0774 28.0466 21.0994 28.0466 21.1159 28.0466C21.1544 28.0466 21.193 28.0576 21.2315 28.0687C21.237 28.0687 21.248 28.0687 21.2535 28.0742C21.4847 28.1512 21.7049 28.3384 21.837 28.5531C22.0572 28.8999 22.1618 29.3238 22.4261 29.6375C22.8059 30.0889 23.5105 30.221 24.0335 29.9458C24.5564 29.6706 24.8372 29.01 24.683 28.443H24.694Z" fill="#113D5E"/>
    <path d="M20.8524 40.7459C20.6983 40.7459 20.5771 40.6248 20.5771 40.4707V37.5916C20.5771 37.4375 20.6983 37.3164 20.8524 37.3164C21.0065 37.3164 21.1276 37.4375 21.1276 37.5916V40.4707C21.1276 40.6248 21.0065 40.7459 20.8524 40.7459Z" fill="#113D5E"/>
    <path d="M13.0409 39.9706C12.8867 39.9706 12.7656 39.8495 12.7656 39.6954V37.4549C12.7656 37.3008 12.8867 37.1797 13.0409 37.1797C13.195 37.1797 13.3161 37.3008 13.3161 37.4549V39.6954C13.3161 39.8495 13.195 39.9706 13.0409 39.9706Z" fill="#113D5E"/>
    <path d="M17.9784 41.0004C17.8242 41.0004 17.7031 40.8793 17.7031 40.7251V37.7635C17.7031 37.6094 17.8242 37.4883 17.9784 37.4883C18.1325 37.4883 18.2536 37.6094 18.2536 37.7635V40.7251C18.2536 40.8793 18.1325 41.0004 17.9784 41.0004Z" fill="#113D5E"/>
    <path d="M15.1444 40.7029C14.9902 40.7029 14.8691 40.5818 14.8691 40.4277V37.9725C14.8691 37.8184 14.9902 37.6973 15.1444 37.6973C15.2985 37.6973 15.4196 37.8184 15.4196 37.9725V40.4277C15.4196 40.5818 15.2985 40.7029 15.1444 40.7029Z" fill="#113D5E"/>
    <path d="M28.9276 39.9706C28.7735 39.9706 28.6523 39.8495 28.6523 39.6954V37.4549C28.6523 37.3008 28.7735 37.1797 28.9276 37.1797C29.0817 37.1797 29.2028 37.3008 29.2028 37.4549V39.6954C29.2028 39.8495 29.0817 39.9706 28.9276 39.9706Z" fill="#113D5E"/>
    <path d="M23.9901 41.0004C23.836 41.0004 23.7148 40.8793 23.7148 40.7251V37.7635C23.7148 37.6094 23.836 37.4883 23.9901 37.4883C24.1442 37.4883 24.2653 37.6094 24.2653 37.7635V40.7251C24.2653 40.8793 24.1442 41.0004 23.9901 41.0004Z" fill="#113D5E"/>
    <path d="M26.825 40.7029C26.6709 40.7029 26.5498 40.5818 26.5498 40.4277V37.9725C26.5498 37.8184 26.6709 37.6973 26.825 37.6973C26.9792 37.6973 27.1003 37.8184 27.1003 37.9725V40.4277C27.1003 40.5818 26.9792 40.7029 26.825 40.7029Z" fill="#113D5E"/>
    <path d="M9.40156 31.9332C9.26945 31.9332 9.14834 31.8342 9.13183 31.6965C8.95017 30.4524 8.14096 29.3129 7.01797 28.7294C5.72434 28.0578 4.16096 28.1239 2.77374 28.1845C2.62511 28.1845 2.493 28.0744 2.48749 27.9202C2.48199 27.7661 2.59759 27.6395 2.75173 27.634C4.13344 27.5734 5.85095 27.5019 7.2767 28.245C8.54831 28.9056 9.46762 30.1992 9.67681 31.6195C9.69882 31.7681 9.59423 31.9112 9.4456 31.9332C9.43459 31.9332 9.41808 31.9332 9.40707 31.9332H9.40156Z" fill="#113D5E"/>
    <path d="M31.2131 31.9338C31.2131 31.9338 31.1856 31.9338 31.1746 31.9338C31.0259 31.9118 30.9213 31.7741 30.9434 31.62C31.1525 30.1998 32.0718 28.9116 33.3435 28.2455C34.7637 27.5024 36.4867 27.5795 37.8684 27.6345C38.0226 27.64 38.1382 27.7721 38.1327 27.9208C38.1272 28.0749 38.0061 28.185 37.8464 28.185C36.4592 28.1244 34.8958 28.0584 33.6022 28.73C32.4847 29.3135 31.6755 30.4475 31.4883 31.6971C31.4663 31.8347 31.3507 31.9338 31.2186 31.9338H31.2131Z" fill="#113D5E"/>
  </g>
  <defs>
    <clipPath id="clip0_573_872">
      <rect width="41.9799" height="41" fill="white"/>
    </clipPath>
  </defs>
</svg>
